<svg width="178" height="42" viewBox="0 0 178 42" version="1.1" xmlns="http://www.w3.org/2000/svg" xmlns:xlink="http://www.w3.org/1999/xlink">
<title>logo</title>
<desc>Created using Figma</desc>
<g id="Canvas" transform="translate(-1277 494)">
<g id="logo">
<g id="Ebene 2">
<g id="Ebene 1">
<g id="Vector">
<use xlink:href="#path0_fill" transform="translate(1277 -490.738)" fill="#799900"/>
</g>
<g id="Vector">
<use xlink:href="#path1_fill" transform="translate(1305.1 -487.16)" fill="#799900"/>
</g>
<g id="Vector">
<use xlink:href="#path2_fill" transform="translate(1310.76 -486.344)" fill="#799900"/>
</g>
<g id="Vector">
<use xlink:href="#path3_fill" transform="translate(1330.37 -494)" fill="#513628"/>
</g>
</g>
</g>
</g>
</g>
<defs>
<path id="path0_fill" d="M 10.9013 13.8195C 11.9452 9.39009 12.5507 8.58379 12.916 8.6885C 13.772 8.95029 12.8534 11.0655 10.9013 13.8195ZM 5.81768 24.8354C 5.20042 28.0862 4.19452 31.2505 2.82177 34.2597C 0.681836 38.1969 0.546133 30.9507 5.82812 24.8354L 5.81768 24.8354ZM 55.9339 16.0394C 54.9214 17.6834 51.3931 23.0134 50.1091 21.872C 48.8252 20.7306 53.3765 12.2488 52.3222 9.9346C 50.8399 6.56281 46.2259 13.9975 43.3553 18.4374C 44.0038 16.2373 44.5163 13.9991 44.8898 11.7357C 44.8898 9.28537 42.802 9.788 41.6955 11.7985C 40.7769 13.5158 39.8792 15.4426 39.6078 16.0813C 32.2276 29.2857 32.8435 23.16 36.33 12.7619C 36.6954 11.7985 34.973 9.62046 34.6181 9.88224C 33.094 12.7619 29.0751 21.1599 27.9478 20.8248C 26.8308 19.7777 29.5344 12.4477 30.7245 10.2487C 31.1524 9.48433 29.7641 10.0812 28.7411 10.343C 28.2505 10.4477 27.6972 10.2487 27.5511 10.4791C 26.6307 12.5517 25.9917 14.7388 25.6512 16.9818C 24.9936 18.029 24.3151 19.0761 23.6992 20.0081C 20.6302 24.6679 18.7512 23.0238 20.5676 19.1494C 21.4549 17.2646 23.0416 14.4478 22.8119 13.3587C 22.3839 11.1074 19.6803 11.2645 19.0853 10.3535C 20.8286 7.60995 21.2983 7.30628 19.0853 6.78271C 17.8326 6.48951 17.1019 9.75659 17.864 10.9713C 16.0281 14.7339 13.1693 17.8993 9.61738 20.1023C 9.71132 19.6416 10.108 16.9609 10.2124 16.5002C 15.0873 11.1388 14.9307 7.40052 13.2814 6.97119C 11.632 6.54187 8.69877 7.43193 7.01814 18.0185C 4.43977 20.8981 2.02843 17.6834 4.0431 11.5053C 7.20603 1.87162 14.6175 -0.672926 11.726 4.85597C 10.964 4.48947 10.8387 5.48426 11.131 5.77745C 11.2514 5.87509 11.3902 5.9475 11.539 5.99043C 11.6879 6.03335 11.8438 6.04591 11.9975 6.02737C 12.1513 6.00882 12.2998 5.95954 12.4342 5.88244C 12.5687 5.80535 12.6864 5.70199 12.7803 5.5785C 16.7992 -2.79862 4.42933 -2.39023 0.41043 11.2645C -0.977919 15.9975 1.17246 23.9349 6.61103 19.6416C 6.50664 20.207 6.27699 22.0605 6.18304 22.4898C -7.76308 38.1027 5.9847 49.6421 9.31465 22.0919C 13.2412 19.4278 16.3586 15.7282 18.3233 11.4006L 18.4276 11.4634C 21.0686 13.5577 20.244 12.6153 17.3838 19.5369C 15.5988 23.7254 19.0331 28.8669 24.3777 20.8563C 24.7744 20.2489 25.1606 19.6206 25.5782 18.9191C 25.7139 21.8825 27.2797 22.9191 29.0647 22.0605C 30.453 21.3379 31.3403 19.118 32.6556 16.8248C 31.6117 21.1599 31.6117 25.2647 33.6995 25.2019C 35.7872 25.1391 37.7393 21.2856 40.1297 16.8981L 40.2028 16.8038L 41.9461 13.8928C 41.184 16.207 38.7101 24.1757 39.0754 24.6783C 39.4408 25.181 41.612 24.1862 42.04 23.516C 42.7603 22.3956 47.0193 14.0917 48.3659 14.5525C 49.7125 15.0132 43.8146 25.1705 49.6812 24.4794C 52.2595 24.1862 55.7461 18.1965 56.6751 16.4059C 57.1762 15.2855 56.6751 14.7829 55.9548 16.008"/>
<path id="path1_fill" d="M 1.29175 0.252269C 0.414896 0.974795 -0.180111 1.91722 0.0495407 2.68163C 0.905515 4.62931 3.64046 4.07433 3.9745 0.796781C 3.9745 0.0323696 2.24167 -0.250358 1.31263 0.252269"/>
<path id="path2_fill" d="M 1.29175 0.252269C 0.414899 0.974795 -0.180111 1.91722 0.049541 2.68163C 0.905515 4.62931 3.64046 4.07433 3.9745 0.796781C 3.9745 0.0323693 2.24167 -0.250358 1.31262 0.252269"/>
<path id="path3_fill" d="M 17.9065 0.0969998C 17.1445 -0.300913 16.4555 0.631041 16.2572 0.987068C 14.542 3.66267 12.6593 6.22634 10.6203 8.6626C 11.779 3.63633 11.2466 1.0499 8.37593 0.526327C 5.50529 0.00275728 -3.16928 9.95058 1.21498 10.5475C 1.30874 10.5622 1.40452 10.5573 1.49631 10.5332C 1.5881 10.509 1.67393 10.4661 1.74842 10.4071C 1.8229 10.3481 1.88443 10.2743 1.92916 10.1904C 1.97388 10.1064 2.00083 10.0141 2.00832 9.91917C 2.03223 9.72655 1.9801 9.5322 1.86307 9.37762C 1.74604 9.22305 1.57338 9.12051 1.382 9.09193C 1.61165 7.57358 6.6953 1.55252 7.64522 2.10751C 9.03357 2.70438 4.31528 21.6576 3.65764 26.4535C 3.65764 28.0347 7.05022 26.3174 7.05022 26.1917C 7.35294 24.1707 7.97926 20.6628 9.13796 15.2386C 10.5576 19.4272 12.8019 24.5687 16.9252 28.2022C 17.6873 28.7677 20.4848 27.3436 19.7333 26.7467C 15.7457 23.7728 12.4262 16.0659 10.7977 10.6731C 13.238 7.88985 15.4644 4.92492 17.4576 1.80384C 18.0839 2.06562 19.5454 1.00801 17.9169 0.0865284L 17.9065 0.0969998ZM 63.6072 26.1812C 63.0909 26.1798 62.5826 26.0541 62.1249 25.8147C 60.8931 24.998 64.4631 18.8303 63.4088 16.4847C 61.9578 13.2386 58.8889 17.0816 56.0182 21.4482C 56.4775 19.9612 59.0246 13.5423 58.1895 11.7202C 56.6445 8.34846 51.5296 17.312 48.6276 21.8147C 49.1182 19.7937 49.9429 16.8512 50.183 15.0711C 50.183 12.558 47.709 13.3224 46.6234 15.3329C 45.9129 16.694 45.2752 18.0922 44.7131 19.5214C 44.6635 19.6083 44.6215 19.6994 44.5878 19.7937C 43.6225 21.5997 42.422 23.2688 41.0178 24.7571C 37.8862 27.7624 39.1701 20.956 41.4145 17.0188C 41.5815 16.6837 41.0178 14.5056 39.9008 14.6418C 39.3372 15.8983 38.4499 17.7832 37.6565 19.3015C 36.3726 21.0921 33.481 24.2336 32.6773 23.7309C 30.5895 22.443 38.7108 11.3223 39.6294 13.3747C 40.1201 14.0658 41.1431 12.5475 40.8821 12.2543C 38.0845 9.97153 34.0238 11.9506 31.8108 15.3957C 30.8518 16.8429 30.1458 18.4435 29.7231 20.1288C 29.0446 21.2492 28.3348 22.3173 27.698 23.2702C 24.629 27.93 22.75 26.286 24.5664 22.4115C 25.4537 20.5267 27.0403 17.7099 26.8107 16.6209C 26.3827 14.3695 23.6791 14.5266 23.0841 13.6156C 24.8273 10.8721 25.2971 10.5684 23.0841 10.0448C 21.8314 9.75163 21.0694 13.1862 21.9358 14.2334C 21.2051 15.7203 18.6685 19.9927 18.6372 20.1602C 18.0735 20.956 18.9712 21.0503 19.5245 20.2963C 20.0777 19.5424 21.4034 16.9245 22.4891 14.7046C 25.1301 16.7989 24.3054 15.8669 21.4452 22.778C 19.6602 26.9666 23.0945 32.1081 28.4287 24.0974C 28.8358 23.4901 29.222 22.8513 29.6396 22.1393C 29.6766 22.7526 29.8825 23.3437 30.2345 23.8465C 30.5866 24.3494 31.0708 24.7444 31.6334 24.9875C 33.3871 25.7833 35.4644 24.1289 37.1346 21.7833C 36.4143 26.1812 36.8736 27.9719 37.8966 28.0033C 40.9238 28.1708 44.0346 22.7676 45.6108 19.8042C 45.6131 19.7728 45.6131 19.7413 45.6108 19.7099L 46.8426 17.4795C 46.3833 18.935 45.5273 24.4325 45.162 26.2441C 44.901 27.4378 45.8196 26.6734 46.5503 26.4116C 47.114 26.2127 47.5942 26.2441 48.0326 25.4797C 49.7132 22.1393 52.8448 16.9455 54.4002 15.5528C 55.9556 14.1601 51.8636 24.8828 52.5839 25.5111C 52.7196 25.6472 53.2102 25.909 53.4399 26.1079C 53.8992 26.5373 54.2332 26.8724 54.6925 26.2755C 56.0495 24.621 58.3252 19.9194 59.5778 19.0607C 60.8305 18.202 57.6362 27.5111 61.0497 28.0766C 61.0497 28.0766 61.9996 28.1918 62.3336 28.2127C 67.1772 28.485 120.101 29.1761 124.423 28.4221C 124.632 28.4221 124.705 27.8253 124.527 27.7101C 124.35 27.5949 65.8828 26.4011 63.6072 26.1812Z"/>
</defs>
</svg>
